<?xml version="1.0" encoding="UTF-8" standalone="no"?>
<!-- Created with Inkscape (http://www.inkscape.org/) -->

<svg
   xmlns:dc="http://purl.org/dc/elements/1.1/"
   xmlns:cc="http://creativecommons.org/ns#"
   xmlns:rdf="http://www.w3.org/1999/02/22-rdf-syntax-ns#"
   xmlns:svg="http://www.w3.org/2000/svg"
   xmlns="http://www.w3.org/2000/svg"
   xmlns:xlink="http://www.w3.org/1999/xlink"
   xmlns:sodipodi="http://sodipodi.sourceforge.net/DTD/sodipodi-0.dtd"
   xmlns:inkscape="http://www.inkscape.org/namespaces/inkscape"
   width="210mm"
   height="297mm"
   id="svg2"
   version="1.1"
   inkscape:version="0.48.3.1 r9886"
   sodipodi:docname="Novo documento 1">
  <defs
     id="defs4">
    <linearGradient
       inkscape:collect="always"
       id="linearGradient5005">
      <stop
         style="stop-color:#000000;stop-opacity:1;"
         offset="0"
         id="stop5007" />
      <stop
         style="stop-color:#000000;stop-opacity:0;"
         offset="1"
         id="stop5009" />
    </linearGradient>
    <clipPath
       id="clipPath4903"
       clipPathUnits="userSpaceOnUse">
      <path
         id="path4905"
         d="M 0,0 31,0 31,25 0,25 0,0 z" />
    </clipPath>
    <clipPath
       id="clipPath4981"
       clipPathUnits="userSpaceOnUse">
      <path
         id="path4983"
         d="m 10.52266,8.630385 15.816,0 0,17.2685 -15.816,0 0,-17.2685 z" />
    </clipPath>
    <clipPath
       id="clipPath4975"
       clipPathUnits="userSpaceOnUse">
      <path
         id="path4977"
         d="m 10.52266,25.89888 15.816,0 0,-17.268495 -15.816,0 0,17.268495 z" />
    </clipPath>
    <clipPath
       id="clipPath4959"
       clipPathUnits="userSpaceOnUse">
      <path
         id="path4961"
         d="M 0,0 37,0 37,36 0,36 0,0 z" />
    </clipPath>
    <radialGradient
       inkscape:collect="always"
       xlink:href="#linearGradient5005"
       id="radialGradient5011"
       cx="18.930711"
       cy="17.21265"
       fx="18.930711"
       fy="17.21265"
       r="16.151056"
       gradientTransform="matrix(1,0,0,0.9795799,0,0.3514841)"
       gradientUnits="userSpaceOnUse" />
    <radialGradient
       inkscape:collect="always"
       xlink:href="#linearGradient5005"
       id="radialGradient5013"
       gradientUnits="userSpaceOnUse"
       gradientTransform="matrix(1,0,0,0.9795799,0,0.3514841)"
       cx="18.930711"
       cy="17.21265"
       fx="18.930711"
       fy="17.21265"
       r="16.151056" />
    <radialGradient
       inkscape:collect="always"
       xlink:href="#linearGradient5005"
       id="radialGradient5015"
       gradientUnits="userSpaceOnUse"
       gradientTransform="matrix(1,0,0,0.9795799,0,0.3514841)"
       cx="18.930711"
       cy="17.21265"
       fx="18.930711"
       fy="17.21265"
       r="16.151056" />
    <radialGradient
       inkscape:collect="always"
       xlink:href="#linearGradient5005"
       id="radialGradient5017"
       gradientUnits="userSpaceOnUse"
       gradientTransform="matrix(1,0,0,0.9795799,0,0.3514841)"
       cx="18.930711"
       cy="17.21265"
       fx="18.930711"
       fy="17.21265"
       r="16.151056" />
    <radialGradient
       inkscape:collect="always"
       xlink:href="#linearGradient5005"
       id="radialGradient5019"
       gradientUnits="userSpaceOnUse"
       gradientTransform="matrix(1,0,0,0.9795799,0,0.3514841)"
       cx="18.930711"
       cy="17.21265"
       fx="18.930711"
       fy="17.21265"
       r="16.151056" />
    <radialGradient
       inkscape:collect="always"
       xlink:href="#linearGradient5005"
       id="radialGradient5021"
       gradientUnits="userSpaceOnUse"
       gradientTransform="matrix(1,0,0,0.9795799,0,0.3514841)"
       cx="18.930711"
       cy="17.21265"
       fx="18.930711"
       fy="17.21265"
       r="16.151056" />
    <radialGradient
       inkscape:collect="always"
       xlink:href="#linearGradient5005"
       id="radialGradient5023"
       gradientUnits="userSpaceOnUse"
       gradientTransform="matrix(1,0,0,0.9795799,0,0.3514841)"
       cx="18.930711"
       cy="17.21265"
       fx="18.930711"
       fy="17.21265"
       r="16.151056" />
    <radialGradient
       inkscape:collect="always"
       xlink:href="#linearGradient5005"
       id="radialGradient5025"
       gradientUnits="userSpaceOnUse"
       gradientTransform="matrix(1,0,0,0.9795799,0,0.3514841)"
       cx="18.930711"
       cy="17.21265"
       fx="18.930711"
       fy="17.21265"
       r="16.151056" />
    <radialGradient
       inkscape:collect="always"
       xlink:href="#linearGradient5005"
       id="radialGradient5027"
       gradientUnits="userSpaceOnUse"
       gradientTransform="matrix(1,0,0,0.9795799,0,0.3514841)"
       cx="18.930711"
       cy="17.21265"
       fx="18.930711"
       fy="17.21265"
       r="16.151056" />
    <radialGradient
       inkscape:collect="always"
       xlink:href="#linearGradient5005"
       id="radialGradient5029"
       gradientUnits="userSpaceOnUse"
       gradientTransform="matrix(1,0,0,0.9795799,0,0.3514841)"
       cx="18.930711"
       cy="17.21265"
       fx="18.930711"
       fy="17.21265"
       r="16.151056" />
    <radialGradient
       inkscape:collect="always"
       xlink:href="#linearGradient5005"
       id="radialGradient5031"
       gradientUnits="userSpaceOnUse"
       gradientTransform="matrix(1,0,0,0.9795799,0,0.3514841)"
       cx="18.930711"
       cy="17.21265"
       fx="18.930711"
       fy="17.21265"
       r="16.151056" />
    <radialGradient
       inkscape:collect="always"
       xlink:href="#linearGradient5005"
       id="radialGradient5033"
       gradientUnits="userSpaceOnUse"
       gradientTransform="matrix(1,0,0,0.9795799,0,0.3514841)"
       cx="18.930711"
       cy="17.21265"
       fx="18.930711"
       fy="17.21265"
       r="16.151056" />
  </defs>
  <sodipodi:namedview
     id="base"
     pagecolor="#ffffff"
     bordercolor="#666666"
     borderopacity="1.0"
     inkscape:pageopacity="0.0"
     inkscape:pageshadow="2"
     inkscape:zoom="0.75829407"
     inkscape:cx="372.04724"
     inkscape:cy="526.18109"
     inkscape:document-units="px"
     inkscape:current-layer="layer1"
     showgrid="false"
     inkscape:window-width="1215"
     inkscape:window-height="1000"
     inkscape:window-x="65"
     inkscape:window-y="24"
     inkscape:window-maximized="1" />
  <metadata
     id="metadata7">
    <rdf:RDF>
      <cc:Work
         rdf:about="">
        <dc:format>image/svg+xml</dc:format>
        <dc:type
           rdf:resource="http://purl.org/dc/dcmitype/StillImage" />
        <dc:title></dc:title>
      </cc:Work>
    </rdf:RDF>
  </metadata>
  <g
     inkscape:label="Camada 1"
     inkscape:groupmode="layer"
     id="layer1">
    <rect
       inkscape:export-ydpi="90"
       inkscape:export-xdpi="90"
       inkscape:export-filename="/var/www/WireIt-0.5.0/examples/MeicanEditor/request.png"
       style="fill:#e6e6e6;fill-opacity:1;stroke:#000000;stroke-width:0.97403312;stroke-opacity:1"
       id="rect5041"
       width="69.025963"
       height="69.02597"
       x="273.20099"
       y="627.08374"
       ry="6.3576555" />
    <path
       sodipodi:type="arc"
       style="fill:#ffffff;fill-opacity:1;stroke:#000000;stroke-width:5;stroke-miterlimit:4;stroke-opacity:1;stroke-dasharray:none"
       id="path5039"
       sodipodi:cx="384.86813"
       sodipodi:cy="670.52454"
       sodipodi:rx="26.263966"
       sodipodi:ry="25.253813"
       d="m 411.1321,670.52454 a 26.263966,25.253813 0 1 1 -52.52793,0 26.263966,25.253813 0 1 1 52.52793,0 z"
       transform="translate(-77.154163,-8.9278107)"
       inkscape:export-filename="/var/www/WireIt-0.5.0/examples/MeicanEditor/request.png"
       inkscape:export-xdpi="90"
       inkscape:export-ydpi="90" />
    <rect
       ry="2.2057173"
       y="471.60257"
       x="137.34753"
       height="23.947788"
       width="23.947784"
       id="rect4757"
       style="fill:#e6e6e6;fill-opacity:1;stroke:#000000;stroke-width:0.33792987;stroke-opacity:1"
       inkscape:export-filename="/var/www/WireIt-0.5.0/examples/MeicanEditor/request_user.png"
       inkscape:export-xdpi="90"
       inkscape:export-ydpi="90" />
    <rect
       style="fill:#e6e6e6;fill-opacity:1;stroke:#000000;stroke-width:0.97403312;stroke-opacity:1"
       id="rect2985"
       width="69.025963"
       height="69.02597"
       x="69.987007"
       y="281.92062"
       ry="6.3576555"
       inkscape:export-filename="/var/www/WireIt-0.5.0/examples/MeicanEditor/domain.png"
       inkscape:export-xdpi="90"
       inkscape:export-ydpi="90" />
    <g
       transform="matrix(1.25,0,0,-1.25,239.78162,381.66887)"
       inkscape:label="image44"
       id="g3365">
      <g
         id="g3367" />
      <g
         id="g3369">
        <path
           id="path3371"
           style="fill:#000000;fill-opacity:1;fill-rule:nonzero;stroke:none"
           d="m 13.58626,6.088116 c -1.12912,0 -1.95483,0.684515 -1.16439,3.694372 l 1.29141,5.335152 c 0.22583,0.85746 0.26464,1.19618 0,1.19618 -0.33872,0 -1.80308,-0.58928 -2.66755,-1.1715 l -0.56107,0.92452 c 2.74168,2.29002 5.89618,3.63438 7.24764,3.63438 1.12911,0 1.31614,-1.3338 0.75158,-3.3874 l -1.48202,-5.61039 c -0.2611,-0.991495 -0.14817,-1.330265 0.11294,-1.330265 0.33873,0 1.44669,0.409323 2.537,1.266775 L 20.29049,9.782488 C 17.62289,7.114889 14.71184,6.088116 13.58626,6.088116 z m 4.22718,20.966574 c 1.65134,0 2.13828,-0.95976 2.13828,-2.0536 0,-1.36554 -1.09384,-2.63228 -2.96041,-2.63228 -1.56316,0 -2.30768,0.78686 -2.26534,2.08538 0,1.09384 0.91741,2.6005 3.08747,2.6005 z m -1.79601,5.40928 C 7.051396,32.34397 -0.1150911,24.9799 0.00137834,16.01391 0.1213367,7.054932 7.485399,-0.1150894 16.45143,0.00138092 25.4104,0.1248703 32.58038,7.488935 32.46395,16.45144 c -0.12,8.95898 -7.48406,16.13249 -16.44652,16.01253"
           inkscape:connector-curvature="0" />
      </g>
    </g>
    <g
       transform="matrix(1.25,0,0,-1.25,82.156382,331.91569)"
       inkscape:label="image51"
       id="g3443"
       inkscape:export-filename="/var/www/WireIt-0.5.0/examples/MeicanEditor/domain.png"
       inkscape:export-xdpi="90"
       inkscape:export-ydpi="90">
      <g
         id="g3445" />
      <g
         id="g3447">
        <path
           id="path3449"
           style="fill:#000000;fill-opacity:1;fill-rule:nonzero;stroke:none"
           d="m 27.071673,17.431498 c -0.48623,0 -0.96258,-0.04238 -1.42658,-0.12 -1.15773,3.78259 -4.74343,6.54194 -8.99002,6.54194 -5.18308,0 -9.3845123,-4.10724 -9.3845123,-9.17422 0,-0.45167 0.035288,-0.89627 0.099854,-1.33027 -0.248757,0.02826 -0.499991,0.04587 -0.756512,0.04587 -3.52431,0 -6.3817252,-2.794622 -6.3817252,-6.2384868 0,-3.443863 2.8574152,-6.23844298 6.3817252,-6.23844298 l 20.4577703,0 c 4.66509,0 8.44592,3.69790798 8.44592,8.25680498 0,4.5588948 -3.78083,8.2568048 -8.44592,8.2568048"
           inkscape:connector-curvature="0" />
      </g>
    </g>
    <rect
       ry="6.3576555"
       y="361.92062"
       x="68.558434"
       height="69.02597"
       width="69.025963"
       id="rect4418"
       style="fill:#e6e6e6;fill-opacity:1;stroke:#000000;stroke-width:0.97403312;stroke-opacity:1"
       inkscape:export-filename="/var/www/WireIt-0.5.0/examples/MeicanEditor/user.png"
       inkscape:export-xdpi="90"
       inkscape:export-ydpi="90" />
    <g
       transform="matrix(1.25,0,0,-1.25,82.341246,416.28164)"
       inkscape:label="image21"
       id="g3131"
       inkscape:export-filename="/var/www/WireIt-0.5.0/examples/MeicanEditor/user.png"
       inkscape:export-xdpi="90"
       inkscape:export-ydpi="90">
      <g
         id="g3133" />
      <g
         id="g3135">
        <path
           id="path3137"
           style="fill:#000000;fill-opacity:1;fill-rule:nonzero;stroke:none"
           d="m 25.97005,8.031301 c -4.34719,1.585087 -5.73741,2.921989 -5.73741,5.784709 0,1.71878 1.32673,1.15771 1.90895,4.30489 0.24345,1.30554 1.41495,0.0211 1.64078,3.00167 0,1.18804 -0.64222,1.48309 -0.64222,1.48309 0,0 0.32817,1.75789 0.45519,3.11073 0.15524,1.68562 -0.97388,6.04047 -7.0112,6.04047 -6.03733,0 -7.17002,-4.35485 -7.01121,-6.04047 0.127022,-1.35284 0.45515,-3.11073 0.45515,-3.11073 0,0 -0.642173,-0.29505 -0.642173,-1.48309 C 9.611739,18.142 10.7832,19.42644 11.02669,18.1209 11.6089,14.97372 12.9356,15.53479 12.9356,13.81601 12.9356,10.95329 11.54537,9.616388 7.19823,8.031301 2.833385,6.441046 0,4.81995 0,3.714523 0,2.609701 0,-5.722046e-6 0,-5.722046e-6 l 33.16827,0 c 0,0 0,2.609706722046 0,3.714528722046 0,1.105427 -2.83342,2.726523 -7.19822,4.316778"
           inkscape:connector-curvature="0" />
      </g>
    </g>
    <rect
       inkscape:export-ydpi="90"
       inkscape:export-xdpi="90"
       inkscape:export-filename="/var/www/WireIt-0.5.0/examples/MeicanEditor/request_user.png"
       style="fill:#e6e6e6;fill-opacity:1;stroke:#000000;stroke-width:0.97403312;stroke-opacity:1"
       id="rect4523"
       width="69.025963"
       height="69.02597"
       x="68.558434"
       y="466.20633"
       ry="6.3576555" />
    <g
       inkscape:export-ydpi="90"
       inkscape:export-xdpi="90"
       inkscape:export-filename="/var/www/WireIt-0.5.0/examples/MeicanEditor/request_user.png"
       id="g4525"
       inkscape:label="image21"
       transform="matrix(1.25,0,0,-1.25,81.769817,534.56735)">
      <g
         id="g4527" />
      <g
         id="g4529">
        <path
           inkscape:connector-curvature="0"
           d="m 25.97005,8.031301 c -4.34719,1.585087 -5.73741,2.921989 -5.73741,5.784709 0,1.71878 1.32673,1.15771 1.90895,4.30489 0.24345,1.30554 1.41495,0.0211 1.64078,3.00167 0,1.18804 -0.64222,1.48309 -0.64222,1.48309 0,0 0.32817,1.75789 0.45519,3.11073 0.15524,1.68562 -0.97388,6.04047 -7.0112,6.04047 -6.03733,0 -7.17002,-4.35485 -7.01121,-6.04047 0.127022,-1.35284 0.45515,-3.11073 0.45515,-3.11073 0,0 -0.642173,-0.29505 -0.642173,-1.48309 C 9.611739,18.142 10.7832,19.42644 11.02669,18.1209 11.6089,14.97372 12.9356,15.53479 12.9356,13.81601 12.9356,10.95329 11.54537,9.616388 7.19823,8.031301 2.833385,6.441046 0,4.81995 0,3.714523 0,2.609701 0,-5.722046e-6 0,-5.722046e-6 l 33.16827,0 c 0,0 0,2.609706722046 0,3.714528722046 0,1.105427 -2.83342,2.726523 -7.19822,4.316778"
           style="fill:#000000;fill-opacity:1;fill-rule:nonzero;stroke:none"
           id="path4531" />
      </g>
    </g>
    <g
       transform="matrix(1.25,0,0,-1.25,420.6984,243.3031)"
       inkscape:label="image12"
       id="g3014">
      <g
         id="g3016" />
      <g
         id="g3018">
        <path
           id="path3020"
           style="fill:#000000;fill-opacity:1;fill-rule:nonzero;stroke:none"
           d="m 18.74714,28.93405 c -7.84325,0 -14.219671,-6.28435 -14.411992,-14.10711 l -4.335148,0 6.489693,-7.229976 6.489337,7.229976 -5.038046,0 c 0.190189,5.82563 4.954066,10.49036 10.806156,10.49036 5.97382,0 10.81607,-4.85882 10.81607,-10.85027 0,-5.991463 -4.84225,-10.850274 -10.81607,-10.850274 -2.39553,0 -4.60757,0.783328 -6.39937,2.10653 L 9.867209,3.069815 C 12.31602,1.146776 15.39785,0 18.74714,0 c 7.96461,0 14.42115,6.478399 14.42115,14.46703 0,7.99215 -6.45654,14.46702 -14.42115,14.46702"
           inkscape:connector-curvature="0" />
      </g>
    </g>
    <g
       transform="matrix(1.25,0,0,-1.25,487.18944,238.02991)"
       inkscape:label="image15"
       id="g3053">
      <g
         id="g3055" />
      <g
         id="g3057">
        <path
           id="path3059"
           style="fill:#000000;fill-opacity:1;fill-rule:nonzero;stroke:none"
           d="m 16.62332,13.01682 0,-7.106484 -3.60654,0 0,7.106484 -7.106473,0 0,3.60616 7.106473,0 -3.4e-4,7.10649 3.60688,0 0,-7.10649 7.10542,0 7e-4,-3.60616 -7.10612,0 z M 14.81987,29.63977 C 6.635075,29.63977 0,23.00257 0,14.8199 0,6.633703 6.635075,3.051758e-5 14.81987,3.051758e-5 23.00398,3.051758e-5 29.63975,6.633703 29.63975,14.8199 c 0,8.18267 -6.63577,14.81987 -14.81988,14.81987"
           inkscape:connector-curvature="0" />
      </g>
    </g>
    <g
       transform="matrix(0.62978499,0,0,-0.66683115,139.32142,492.59167)"
       inkscape:label="image18"
       id="g3092"
       inkscape:export-filename="/var/www/WireIt-0.5.0/examples/MeicanEditor/request_user.png"
       inkscape:export-xdpi="90"
       inkscape:export-ydpi="90">
      <g
         id="g3094" />
      <g
         id="g3096">
        <path
           id="path3098"
           style="fill:#000000;fill-opacity:1;fill-rule:nonzero;stroke:none"
           d="m 27.66271,19.75983 c -2.02397,0 -6.49146,-0.17643 -6.49146,-0.17643 l 0.35285,5.50913 c 0,3.37438 -0.64324,4.90007 -2.47315,4.90007 -2.26956,0 -1.3539,-2.75822 -2.08784,-5.14817 -0.73393,-2.38948 -4.69649,-7.20172 -7.56272,-7.20172 l -0.579036,0 0,-14.114168 C 12.87036,3.528542 12.9314,0 16.59156,0 c 2.3373,0 7.4491,0 7.4491,0 3.68027,0 7.71621,3.257914 7.71621,6.080402 l 0,8.504168 c 0,3.21238 -1.28685,5.17526 -4.09416,5.17526 z M 0,16.0288 0,5.222647 C 0,4.179935 0.5063502,3.528542 1.572671,3.528542 c 0,0 3.570183,0 5.484412,0 l 0,14.114168 -5.532395,0 C 0.3856704,17.64271 0,16.77685 0,16.0288"
           inkscape:connector-curvature="0" />
      </g>
    </g>
    <g
       transform="matrix(1.25,0,0,-1.25,513.78587,275.0674)"
       inkscape:label="image23"
       id="g3170">
      <g
         id="g3172" />
      <g
         id="g3174">
        <path
           id="path3176"
           style="fill:#000000;fill-opacity:1;fill-rule:nonzero;stroke:none"
           d="m 22.93552,10.58565 c -1.21384,0 -2.32534,-0.41208 -3.21803,-1.098063 l -9.20953,5.524633 c 0.04588,0.28269 0.07766,0.57059 0.07766,0.86624 0,0.29608 -0.03178,0.58364 -0.07766,0.86628 l 9.20953,5.52463 c 0.89269,-0.68589 2.00419,-1.0981 3.21803,-1.0981 2.9216,0 5.29281,2.37014 5.29281,5.29281 0,2.92277 -2.37121,5.29282 -5.29281,5.29282 -2.92164,0 -5.29281,-2.37005 -5.29281,-5.29282 0,-0.29565 0.03174,-0.58355 0.07762,-0.86619 L 8.51084,20.07325 C 7.618109,20.75915 6.50661,21.17127 5.292812,21.17127 2.37117,21.17127 0,18.80122 0,15.87846 c 0,-2.92268 2.37117,-5.29281 5.292812,-5.29281 1.213798,0 2.325297,0.41216 3.218028,1.0981 l 9.20949,-5.524631 c -0.04588,-0.282645 -0.07762,-0.5702 -0.07762,-0.866284 0,-2.922676 2.37117,-5.29281211182 5.29281,-5.29281211182 2.9216,0 5.29281,2.37013611182 5.29281,5.29281211182 0,2.92272 -2.37121,5.292815 -5.29281,5.292815"
           inkscape:connector-curvature="0" />
      </g>
    </g>
    <g
       transform="matrix(1.25,0,0,-1.25,481.36982,403.84952)"
       inkscape:label="image24"
       id="g3209">
      <g
         id="g3211" />
      <g
         id="g3213">
        <path
           id="path3215"
           style="fill:#000000;fill-opacity:1;fill-rule:nonzero;stroke:none"
           d="M 7.902176,2.792498 5.038057,2.176037 C 4.761076,2.693344 4.429048,3.210306 3.818962,3.819702 3.209565,4.429445 2.692279,4.761452 2.17536,5.039099 l 0.61715,2.863838 0.827777,0.828466 c 0,0 1.559266,-0.031011 3.318604,-1.791837 C 8.698919,5.179861 8.730686,3.620275 8.730686,3.620275 L 7.902176,2.792498 z M 25.33777,25.33846 c -2.5462,2.54622 -4.45655,2.16374 -4.45655,2.16374 L 1.781909,8.403275 0,-1.144409e-5 8.402534,1.782263 27.50217,20.88084 c 0,0 0.38251,1.91072 -2.1644,4.45762"
           inkscape:connector-curvature="0" />
      </g>
    </g>
    <g
       id="g3250"
       transform="matrix(0.76875965,0,0,-0.76875965,72.848344,491.78467)" />
    <g
       id="g3252"
       transform="matrix(0.76875965,0,0,-0.76875965,72.848344,491.78467)"
       inkscape:export-filename="/var/www/WireIt-0.5.0/examples/MeicanEditor/request_user.png"
       inkscape:export-xdpi="90"
       inkscape:export-ydpi="90">
      <path
         inkscape:connector-curvature="0"
         d="m 7.409936,7.46283 9.879914,0 0,3.08751 -9.879914,0 0,-3.08751 z m 0,13.84956 9.879914,0 0,3.08743 -9.879914,0 0,-3.08743 z m -3.881395,6.91593 17.642709,0 0,-24.699778 -17.642709,0 0,24.699778 z m 17.642709,3.52855 -17.642709,0 C 1.587843,31.75687 0,30.16902 0,28.22832 L 0,3.528542 C 0,1.587843 1.587843,0 3.528541,0 L 21.17125,0 c 1.9407,0 3.52854,1.587843 3.52854,3.528542 l 0,24.699778 c 0,1.9407 -1.58784,3.52855 -3.52854,3.52855 z M 7.44981,14.34348 l 9.87992,0 0,3.17569 -9.87992,0 0,-3.17569 z"
         style="fill:#000000;fill-opacity:1;fill-rule:nonzero;stroke:none"
         id="path3254" />
    </g>
    <g
       transform="matrix(1.25,0,0,-1.25,433.2592,544.50464)"
       inkscape:label="image38"
       id="g3287">
      <g
         id="g3289" />
      <g
         id="g3291">
        <path
           id="path3293"
           style="fill:#000000;fill-opacity:1;fill-rule:nonzero;stroke:none"
           d="M 12.38025,23.28839 12.37884,16.53475 0,16.53828 0,6.739553 l 12.38025,0 L 12.37884,0 25.75835,11.6442 12.38025,23.28839"
           inkscape:connector-curvature="0" />
      </g>
    </g>
    <g
       id="g3328"
       transform="matrix(0.0071312,0.8845407,-0.8845407,0.0071312,108.80046,471.47082)" />
    <g
       id="g3330"
       transform="matrix(0.0071312,0.8845407,-0.8845407,0.0071312,108.80046,471.47082)"
       inkscape:export-filename="/var/www/WireIt-0.5.0/examples/MeicanEditor/request_user.png"
       inkscape:export-xdpi="90"
       inkscape:export-ydpi="90">
      <path
         inkscape:connector-curvature="0"
         d="m 3.528541,5.292809 14.290589,0 0,-5.292809 8.4685,7.762786 -8.4685,7.762784 0,-5.29281 -12.879173,0 0,10.93847 L 0,21.17123 0,8.821348 C 0,6.873588 1.579379,5.292809 3.528541,5.292809"
         style="fill:#000000;fill-opacity:1;fill-rule:nonzero;stroke:none"
         id="path3332" />
    </g>
    <g
       transform="matrix(1.25,0,0,-1.25,526.86338,504.07115)"
       inkscape:label="image49"
       id="g3404">
      <g
         id="g3406" />
      <g
         id="g3408">
        <path
           id="path3410"
           style="fill:#000000;fill-opacity:1;fill-rule:nonzero;stroke:none"
           d="m 3.359183,16.96348 c 0,4.17073 3.383864,7.55459 7.554587,7.55459 4.1743,0 7.8934,-3.7191 7.8934,-7.89336 0,-4.17072 -3.38391,-7.554634 -7.55816,-7.554634 -4.170768,0 -7.889827,3.719104 -7.889827,7.893404 z M 27.24743,4.292408 20.582,10.96142 c 1.00562,1.65133 1.58431,3.5885 1.58431,5.66329 0,6.03028 -5.22222,11.25255 -11.25254,11.25255 C 4.887028,27.87726 0,22.99023 0,16.96348 0,10.93316 5.222266,5.71089 11.24901,5.71089 c 2.00419,0 3.8814,0.543411 5.49746,1.485506 l 6.70424,-6.7042428 c 0.65277,-0.6562615 1.7184,-0.6562615 2.3747,0 l 1.66197,1.6620198 c 0.65631,0.656261 0.41635,1.481972 -0.23995,2.138235"
           inkscape:connector-curvature="0" />
      </g>
    </g>
    <g
       transform="matrix(1.25,0,0,-1.25,304.43763,488.25052)"
       inkscape:label="image59"
       id="g3482">
      <g
         id="g3484" />
      <g
         id="g3486">
        <path
           id="path3488"
           style="fill:#000000;fill-opacity:1;fill-rule:nonzero;stroke:none"
           d="M 30.85003,24.3826 C 10.72325,16.32519 18.87417,38.01091 3.263902,26.59501 L 0,25.42282 6.467803,0 10.02809,0 6.859467,12.45189 C 20.79015,24.12748 15.15154,-0.270628 31.62633,23.66806 c 0.38107,0.55535 -0.13055,0.97285 -0.7763,0.71454"
           inkscape:connector-curvature="0" />
      </g>
    </g>
    <g
       transform="matrix(1.25,0,0,-1.25,301.58053,553.63882)"
       inkscape:label="image60"
       id="g3521">
      <g
         id="g3523" />
      <g
         id="g3525">
        <path
           id="path3527"
           style="fill:#000000;fill-opacity:1;fill-rule:nonzero;stroke:none"
           d="m 22.58266,25.75837 2.46998,0 0,5.99853 -2.46998,0 0,-5.99853 z m -15.878433,0 2.469979,0 0,5.99853 -2.469979,0 0,-5.99853 z m -3.175686,-8.11565 24.699779,0 0,-14.114175 -24.699779,0 0,14.114175 z m 24.699779,10.58563 -1.58784,0 0,-3.52854 -5.64566,0 0,3.52854 -10.23277,0 0,-3.52854 -5.645666,0 0,3.52854 -1.587843,0 C 1.587843,28.22835 0,26.64051 0,24.69981 L 0,3.528545 C 0,1.587845 1.587843,0 3.528541,0 L 28.22832,0 c 1.9407,0 3.52855,1.587845 3.52855,3.528545 l 0,21.171265 c 0,1.9407 -1.58785,3.52854 -3.52855,3.52854"
           inkscape:connector-curvature="0" />
      </g>
    </g>
    <rect
       ry="6.3576555"
       y="556.20636"
       x="69.987007"
       height="69.02597"
       width="69.025963"
       id="rect4623"
       style="fill:#e6e6e6;fill-opacity:1;stroke:#000000;stroke-width:0.97403312;stroke-opacity:1"
       inkscape:export-filename="/var/www/WireIt-0.5.0/examples/MeicanEditor/request_group.png"
       inkscape:export-xdpi="90"
       inkscape:export-ydpi="90" />
    <g
       transform="matrix(1.25,0,0,-1.25,83.198388,624.56735)"
       inkscape:label="image21"
       id="g4625"
       inkscape:export-filename="/var/www/WireIt-0.5.0/examples/MeicanEditor/request_group.png"
       inkscape:export-xdpi="90"
       inkscape:export-ydpi="90">
      <g
         id="g4627" />
      <g
         id="g4629">
        <path
           id="path4631"
           style="fill:#000000;fill-opacity:1;fill-rule:nonzero;stroke:none"
           d="m 25.97005,8.031301 c -4.34719,1.585087 -5.73741,2.921989 -5.73741,5.784709 0,1.71878 1.32673,1.15771 1.90895,4.30489 0.24345,1.30554 1.41495,0.0211 1.64078,3.00167 0,1.18804 -0.64222,1.48309 -0.64222,1.48309 0,0 0.32817,1.75789 0.45519,3.11073 0.15524,1.68562 -0.97388,6.04047 -7.0112,6.04047 -6.03733,0 -7.17002,-4.35485 -7.01121,-6.04047 0.127022,-1.35284 0.45515,-3.11073 0.45515,-3.11073 0,0 -0.642173,-0.29505 -0.642173,-1.48309 C 9.611739,18.142 10.7832,19.42644 11.02669,18.1209 11.6089,14.97372 12.9356,15.53479 12.9356,13.81601 12.9356,10.95329 11.54537,9.616388 7.19823,8.031301 2.833385,6.441046 0,4.81995 0,3.714523 0,2.609701 0,-5.722046e-6 0,-5.722046e-6 l 33.16827,0 c 0,0 0,2.609706722046 0,3.714528722046 0,1.105427 -2.83342,2.726523 -7.19822,4.316778"
           inkscape:connector-curvature="0" />
      </g>
    </g>
    <g
       inkscape:export-ydpi="90"
       inkscape:export-xdpi="90"
       inkscape:export-filename="/var/www/WireIt-0.5.0/examples/MeicanEditor/request_group.png"
       transform="matrix(0.76875965,0,0,-0.76875965,74.276915,581.78467)"
       id="g4633">
      <path
         id="path4635"
         style="fill:#000000;fill-opacity:1;fill-rule:nonzero;stroke:none"
         d="m 7.409936,7.46283 9.879914,0 0,3.08751 -9.879914,0 0,-3.08751 z m 0,13.84956 9.879914,0 0,3.08743 -9.879914,0 0,-3.08743 z m -3.881395,6.91593 17.642709,0 0,-24.699778 -17.642709,0 0,24.699778 z m 17.642709,3.52855 -17.642709,0 C 1.587843,31.75687 0,30.16902 0,28.22832 L 0,3.528542 C 0,1.587843 1.587843,0 3.528541,0 L 21.17125,0 c 1.9407,0 3.52854,1.587843 3.52854,3.528542 l 0,24.699778 c 0,1.9407 -1.58784,3.52855 -3.52854,3.52855 z M 7.44981,14.34348 l 9.87992,0 0,3.17569 -9.87992,0 0,-3.17569 z"
         inkscape:connector-curvature="0" />
    </g>
    <g
       inkscape:export-ydpi="90"
       inkscape:export-xdpi="90"
       inkscape:export-filename="/var/www/WireIt-0.5.0/examples/MeicanEditor/request_group.png"
       transform="matrix(0.0071312,0.8845407,-0.8845407,0.0071312,110.22903,561.47082)"
       id="g4637">
      <path
         id="path4639"
         style="fill:#000000;fill-opacity:1;fill-rule:nonzero;stroke:none"
         d="m 3.528541,5.292809 14.290589,0 0,-5.292809 8.4685,7.762786 -8.4685,7.762784 0,-5.29281 -12.879173,0 0,10.93847 L 0,21.17123 0,8.821348 C 0,6.873588 1.579379,5.292809 3.528541,5.292809"
         inkscape:connector-curvature="0" />
    </g>
    <g
       inkscape:export-ydpi="90"
       inkscape:export-xdpi="90"
       inkscape:export-filename="/var/www/WireIt-0.5.0/examples/MeicanEditor/request_group.png"
       id="g4641"
       inkscape:label="image21"
       transform="matrix(0.96884595,0,0,-0.96884595,103.19839,624.56735)">
      <g
         id="g4643" />
      <g
         id="g4645">
        <path
           inkscape:connector-curvature="0"
           d="m 25.97005,8.0312993 c -4.34719,1.585087 -5.73741,2.9219887 -5.73741,5.7847087 0,1.71878 1.32673,1.15771 1.90895,4.30489 0.24345,1.30554 1.41495,0.0211 1.64078,3.00167 0,1.18804 -0.64222,1.48309 -0.64222,1.48309 0,0 0.32817,1.75789 0.45519,3.11073 0.15524,1.68562 -0.97388,6.04047 -7.0112,6.04047 -6.03733,0 -7.17002,-4.35485 -7.01121,-6.04047 0.127022,-1.35284 0.45515,-3.11073 0.45515,-3.11073 0,0 -0.642173,-0.29505 -0.642173,-1.48309 0.225832,-2.98057 1.397293,-1.69613 1.640783,-3.00167 0.58221,-3.14718 1.90891,-2.58611 1.90891,-4.30489 0,-2.86272 -1.39023,-4.1996217 -5.73737,-5.7847087 C 2.833385,6.4410443 0,4.8199483 0,3.7145213 0,2.6096993 0,-7.3825539e-6 0,-7.3825539e-6 l 33.16827,0 c 0,0 0,2.6097066825539 0,3.7145286825539 0,1.105427 -2.83342,2.726523 -7.19822,4.316778"
           style="fill:#000000;fill-opacity:1;fill-rule:nonzero;stroke:none"
           id="path4647" />
      </g>
    </g>
    <g
       transform="matrix(0.96884595,0,0,-0.96884595,72.484104,624.56735)"
       inkscape:label="image21"
       id="g4649"
       inkscape:export-filename="/var/www/WireIt-0.5.0/examples/MeicanEditor/request_group.png"
       inkscape:export-xdpi="90"
       inkscape:export-ydpi="90">
      <g
         id="g4651" />
      <g
         id="g4653">
        <path
           id="path4655"
           style="fill:#000000;fill-opacity:1;fill-rule:nonzero;stroke:none"
           d="m 25.97005,8.031301 c -4.34719,1.585087 -5.73741,2.921989 -5.73741,5.784709 0,1.71878 1.32673,1.15771 1.90895,4.30489 0.24345,1.30554 1.41495,0.0211 1.64078,3.00167 0,1.18804 -0.64222,1.48309 -0.64222,1.48309 0,0 0.32817,1.75789 0.45519,3.11073 0.15524,1.68562 -0.97388,6.04047 -7.0112,6.04047 -6.03733,0 -7.17002,-4.35485 -7.01121,-6.04047 0.127022,-1.35284 0.45515,-3.11073 0.45515,-3.11073 0,0 -0.642173,-0.29505 -0.642173,-1.48309 C 9.611739,18.142 10.7832,19.42644 11.02669,18.1209 11.6089,14.97372 12.9356,15.53479 12.9356,13.81601 12.9356,10.95329 11.54537,9.616388 7.19823,8.031301 2.833385,6.441046 0,4.81995 0,3.714523 0,2.609701 0,-5.722046e-6 0,-5.722046e-6 l 33.16827,0 c 0,0 0,2.609706722046 0,3.714528722046 0,1.105427 -2.83342,2.726523 -7.19822,4.316778"
           inkscape:connector-curvature="0" />
      </g>
    </g>
    <rect
       inkscape:export-ydpi="90"
       inkscape:export-xdpi="90"
       inkscape:export-filename="/var/www/WireIt-0.5.0/examples/MeicanEditor/accept.png"
       style="fill:#e6e6e6;fill-opacity:1;stroke:#000000;stroke-width:0.97403312;stroke-opacity:1"
       id="rect4657"
       width="69.025963"
       height="69.02597"
       x="68.558434"
       y="650.49207"
       ry="6.3576555" />
    <g
       id="g4667"
       transform="matrix(1.5110062,0,0,-1.5110062,83.56263,708.99746)"
       inkscape:export-filename="/var/www/WireIt-0.5.0/examples/MeicanEditor/accept.png"
       inkscape:export-xdpi="90"
       inkscape:export-ydpi="90">
      <path
         inkscape:connector-curvature="0"
         d="m 7.409936,7.46283 9.879914,0 0,3.08751 -9.879914,0 0,-3.08751 z m 0,13.84956 9.879914,0 0,3.08743 -9.879914,0 0,-3.08743 z m -3.881395,6.91593 17.642709,0 0,-24.699778 -17.642709,0 0,24.699778 z m 17.642709,3.52855 -17.642709,0 C 1.587843,31.75687 0,30.16902 0,28.22832 L 0,3.528542 C 0,1.587843 1.587843,0 3.528541,0 L 21.17125,0 c 1.9407,0 3.52854,1.587843 3.52854,3.528542 l 0,24.699778 c 0,1.9407 -1.58784,3.52855 -3.52854,3.52855 z M 7.44981,14.34348 l 9.87992,0 0,3.17569 -9.87992,0 0,-3.17569 z"
         style="fill:#000000;fill-opacity:1;fill-rule:nonzero;stroke:none"
         id="path4669" />
    </g>
    <g
       transform="matrix(1.25,0,0,-1.25,91.284787,694.65644)"
       inkscape:label="image104"
       id="g3599"
       style="fill:#008000"
       inkscape:export-filename="/var/www/WireIt-0.5.0/examples/MeicanEditor/accept.png"
       inkscape:export-xdpi="90"
       inkscape:export-ydpi="90">
      <g
         id="g3601"
         style="fill:#008000" />
      <g
         id="g3603"
         style="fill:#008000">
        <path
           id="path3605"
           style="fill:#008000;fill-opacity:1;fill-rule:nonzero;stroke:none"
           d="M 8.765623,0 C 7.996424,0 7.269524,0.3591862 6.803732,0.9752617 L 0.4982259,9.301238 C -0.3203773,10.38448 -0.1086733,11.92611 0.9746137,12.74652 2.057858,13.56724 3.59983,13.35235 4.421965,12.27013 L 8.568004,6.794559 18.9984,23.54067 c 0.7163,1.15169 2.23355,1.50424 3.38739,0.78759 1.15384,-0.71772 1.50317,-2.23501 0.78686,-3.38778 L 10.851,1.159485 C 10.42402,0.4717369 9.686567,0.03915405 8.874985,0.00245667 8.839708,6.904602e-4 8.8009,0 8.765623,0"
           inkscape:connector-curvature="0" />
      </g>
    </g>
    <rect
       ry="6.3576555"
       y="728.34918"
       x="67.12986"
       height="69.02597"
       width="69.025963"
       id="rect4691"
       style="fill:#e6e6e6;fill-opacity:1;stroke:#000000;stroke-width:0.97403312;stroke-opacity:1"
       inkscape:export-filename="/var/www/WireIt-0.5.0/examples/MeicanEditor/deny.png"
       inkscape:export-xdpi="90"
       inkscape:export-ydpi="90" />
    <g
       inkscape:export-ydpi="90"
       inkscape:export-xdpi="90"
       inkscape:export-filename="/var/www/WireIt-0.5.0/examples/MeicanEditor/deny.png"
       transform="matrix(1.5110062,0,0,-1.5110062,82.982073,786.8546)"
       id="g4693">
      <path
         id="path4695"
         style="fill:#000000;fill-opacity:1;fill-rule:nonzero;stroke:none"
         d="m 7.409936,7.46283 9.879914,0 0,3.08751 -9.879914,0 0,-3.08751 z m 0,13.84956 9.879914,0 0,3.08743 -9.879914,0 0,-3.08743 z m -3.881395,6.91593 17.642709,0 0,-24.699778 -17.642709,0 0,24.699778 z m 17.642709,3.52855 -17.642709,0 C 1.587843,31.75687 0,30.16902 0,28.22832 L 0,3.528542 C 0,1.587843 1.587843,0 3.528541,0 L 21.17125,0 c 1.9407,0 3.52854,1.587843 3.52854,3.528542 l 0,24.699778 c 0,1.9407 -1.58784,3.52855 -3.52854,3.52855 z M 7.44981,14.34348 l 9.87992,0 0,3.17569 -9.87992,0 0,-3.17569 z"
         inkscape:connector-curvature="0" />
    </g>
    <g
       transform="matrix(1.741229,0,0,-1.741229,87.202873,778.68709)"
       inkscape:label="image103"
       id="g3560"
       style="fill:#aa0000"
       inkscape:export-filename="/var/www/WireIt-0.5.0/examples/MeicanEditor/deny.png"
       inkscape:export-xdpi="90"
       inkscape:export-ydpi="90">
      <g
         id="g3562"
         style="fill:#aa0000" />
      <g
         id="g3564"
         style="fill:#aa0000">
        <path
           id="path3566"
           style="fill:#aa0000;fill-opacity:1;fill-rule:nonzero;stroke:none"
           d="m 15.96405,3.61402 -4.86235,5.559909 4.86235,5.560301 c 0.8292,0.82708 0.8292,2.16722 0,2.9943 -0.82567,0.82675 -2.16654,0.8264 -2.9922,-3.4e-4 L 8.29299,12.38175 3.614133,17.72819 c -0.825668,0.82674 -2.166533,0.82709 -2.9922007,3.4e-4 -0.8292431,-0.82708 -0.8292431,-2.16722 0,-2.9943 L 5.484237,9.173929 0.6219323,3.61402 c -0.8292431,-0.826744 -0.8292431,-2.166875 0,-2.9939619 0.8256677,-0.8267441 2.1665327,-0.8267441 2.9922007,0 L 8.29299,5.966454 12.97185,0.6200581 c 0.82566,-0.8267441 2.16653,-0.8267441 2.9922,0 0.8292,0.8270869 0.8292,2.1672179 0,2.9939619"
           inkscape:connector-curvature="0" />
      </g>
    </g>
    <rect
       inkscape:export-ydpi="90"
       inkscape:export-xdpi="90"
       inkscape:export-filename="/var/www/WireIt-0.5.0/examples/MeicanEditor/time.png"
       style="fill:#e6e6e6;fill-opacity:1;stroke:#000000;stroke-width:0.97403312;stroke-opacity:1"
       id="rect4705"
       width="69.025963"
       height="69.02597"
       x="67.12986"
       y="824.06348"
       ry="6.3576555" />
    <g
       transform="matrix(1.25,0,0,-1.25,81.353729,878.86556)"
       inkscape:label="image100"
       id="g4734"
       inkscape:export-filename="/var/www/WireIt-0.5.0/examples/MeicanEditor/time.png"
       inkscape:export-xdpi="90"
       inkscape:export-ydpi="90">
      <g
         id="g4736" />
      <g
         id="g4738">
        <path
           id="path4740"
           style="fill:#000000;fill-opacity:1;fill-rule:nonzero;stroke:none"
           d="m 16.23059,3.528542 c -7.014392,0 -12.702049,5.687664 -12.702049,12.702748 0,7.01582 5.687657,12.70275 12.702049,12.70275 7.0165,0 12.70345,-5.68693 12.70345,-12.70275 0,-7.015084 -5.68695,-12.702748 -12.70345,-12.702748 z m 0,28.934048 C 7.267384,32.46259 0,25.19522 0,16.23129 0,7.267065 7.267384,0 16.23059,0 c 8.96461,0 16.23199,7.267065 16.23199,16.23129 0,8.96393 -7.26738,16.2313 -16.23199,16.2313"
           inkscape:connector-curvature="0" />
        <path
           id="path4742"
           style="fill:#000000;fill-opacity:1;fill-rule:nonzero;stroke:none"
           d="m 17.46628,25.40549 -2.47069,0 0,-9.68587 6.00805,-6.006912 1.74663,1.746262 -5.28399,5.28432 0,8.6622"
           inkscape:connector-curvature="0" />
      </g>
    </g>
    <rect
       inkscape:export-ydpi="90"
       inkscape:export-xdpi="90"
       inkscape:export-filename="/var/www/WireIt-0.5.0/examples/MeicanEditor/request_user.png"
       style="fill:#e6e6e6;fill-opacity:1;stroke:#000000;stroke-width:0.33792987;stroke-opacity:1"
       id="rect4759"
       width="23.947784"
       height="23.947788"
       x="137.34753"
       y="506.78113"
       ry="2.2057173" />
    <g
       id="g4749"
       inkscape:label="image18"
       transform="matrix(0.62978499,0,0,0.66683115,139.32142,508.93822)"
       inkscape:export-filename="/var/www/WireIt-0.5.0/examples/MeicanEditor/request_user.png"
       inkscape:export-xdpi="90"
       inkscape:export-ydpi="90">
      <g
         id="g4751" />
      <g
         id="g4753">
        <path
           inkscape:connector-curvature="0"
           d="m 27.66271,19.75983 c -2.02397,0 -6.49146,-0.17643 -6.49146,-0.17643 l 0.35285,5.50913 c 0,3.37438 -0.64324,4.90007 -2.47315,4.90007 -2.26956,0 -1.3539,-2.75822 -2.08784,-5.14817 -0.73393,-2.38948 -4.69649,-7.20172 -7.56272,-7.20172 l -0.579036,0 0,-14.114168 C 12.87036,3.528542 12.9314,0 16.59156,0 c 2.3373,0 7.4491,0 7.4491,0 3.68027,0 7.71621,3.257914 7.71621,6.080402 l 0,8.504168 c 0,3.21238 -1.28685,5.17526 -4.09416,5.17526 z M 0,16.0288 0,5.222647 C 0,4.179935 0.5063502,3.528542 1.572671,3.528542 c 0,0 3.570183,0 5.484412,0 l 0,14.114168 -5.532395,0 C 0.3856704,17.64271 0,16.77685 0,16.0288"
           style="fill:#000000;fill-opacity:1;fill-rule:nonzero;stroke:none"
           id="path4755" />
      </g>
    </g>
    <rect
       inkscape:export-ydpi="90"
       inkscape:export-xdpi="90"
       inkscape:export-filename="/var/www/WireIt-0.5.0/examples/MeicanEditor/request_group.png"
       style="fill:#e6e6e6;fill-opacity:1;stroke:#000000;stroke-width:0.33792987;stroke-opacity:1"
       id="rect4769"
       width="23.947784"
       height="23.947788"
       x="139.49039"
       y="561.6026"
       ry="2.2057173" />
    <g
       id="g4771"
       inkscape:label="image18"
       transform="matrix(0.62978499,0,0,-0.66683115,141.46428,582.59167)"
       inkscape:export-filename="/var/www/WireIt-0.5.0/examples/MeicanEditor/request_group.png"
       inkscape:export-xdpi="90"
       inkscape:export-ydpi="90">
      <g
         id="g4773" />
      <g
         id="g4775">
        <path
           inkscape:connector-curvature="0"
           d="m 27.66271,19.75983 c -2.02397,0 -6.49146,-0.17643 -6.49146,-0.17643 l 0.35285,5.50913 c 0,3.37438 -0.64324,4.90007 -2.47315,4.90007 -2.26956,0 -1.3539,-2.75822 -2.08784,-5.14817 -0.73393,-2.38948 -4.69649,-7.20172 -7.56272,-7.20172 l -0.579036,0 0,-14.114168 C 12.87036,3.528542 12.9314,0 16.59156,0 c 2.3373,0 7.4491,0 7.4491,0 3.68027,0 7.71621,3.257914 7.71621,6.080402 l 0,8.504168 c 0,3.21238 -1.28685,5.17526 -4.09416,5.17526 z M 0,16.0288 0,5.222647 C 0,4.179935 0.5063502,3.528542 1.572671,3.528542 c 0,0 3.570183,0 5.484412,0 l 0,14.114168 -5.532395,0 C 0.3856704,17.64271 0,16.77685 0,16.0288"
           style="fill:#000000;fill-opacity:1;fill-rule:nonzero;stroke:none"
           id="path4777" />
      </g>
    </g>
    <rect
       ry="2.2057173"
       y="596.78113"
       x="139.49039"
       height="23.947788"
       width="23.947784"
       id="rect4779"
       style="fill:#e6e6e6;fill-opacity:1;stroke:#000000;stroke-width:0.33792987;stroke-opacity:1"
       inkscape:export-filename="/var/www/WireIt-0.5.0/examples/MeicanEditor/request_group.png"
       inkscape:export-xdpi="90"
       inkscape:export-ydpi="90" />
    <g
       transform="matrix(0.62978499,0,0,0.66683115,141.46428,598.93822)"
       inkscape:label="image18"
       id="g4781"
       inkscape:export-filename="/var/www/WireIt-0.5.0/examples/MeicanEditor/request_group.png"
       inkscape:export-xdpi="90"
       inkscape:export-ydpi="90">
      <g
         id="g4783" />
      <g
         id="g4785">
        <path
           id="path4787"
           style="fill:#000000;fill-opacity:1;fill-rule:nonzero;stroke:none"
           d="m 27.66271,19.75983 c -2.02397,0 -6.49146,-0.17643 -6.49146,-0.17643 l 0.35285,5.50913 c 0,3.37438 -0.64324,4.90007 -2.47315,4.90007 -2.26956,0 -1.3539,-2.75822 -2.08784,-5.14817 -0.73393,-2.38948 -4.69649,-7.20172 -7.56272,-7.20172 l -0.579036,0 0,-14.114168 C 12.87036,3.528542 12.9314,0 16.59156,0 c 2.3373,0 7.4491,0 7.4491,0 3.68027,0 7.71621,3.257914 7.71621,6.080402 l 0,8.504168 c 0,3.21238 -1.28685,5.17526 -4.09416,5.17526 z M 0,16.0288 0,5.222647 C 0,4.179935 0.5063502,3.528542 1.572671,3.528542 c 0,0 3.570183,0 5.484412,0 l 0,14.114168 -5.532395,0 C 0.3856704,17.64271 0,16.77685 0,16.0288"
           inkscape:connector-curvature="0" />
      </g>
    </g>
    <rect
       ry="6.3576555"
       y="791.92059"
       x="279.987"
       height="69.02597"
       width="69.025963"
       id="rect4808"
       style="fill:#e6e6e6;fill-opacity:1;stroke:#000000;stroke-width:0.97403312;stroke-opacity:1"
       inkscape:export-filename="/var/www/WireIt-0.5.0/examples/MeicanEditor/notify_user.png"
       inkscape:export-xdpi="90"
       inkscape:export-ydpi="90" />
    <g
       transform="matrix(1.25,0,0,-1.25,293.19839,860.28164)"
       inkscape:label="image21"
       id="g4810"
       inkscape:export-filename="/var/www/WireIt-0.5.0/examples/MeicanEditor/notify_user.png"
       inkscape:export-xdpi="90"
       inkscape:export-ydpi="90">
      <g
         id="g4812" />
      <g
         id="g4814">
        <path
           id="path4816"
           style="fill:#000000;fill-opacity:1;fill-rule:nonzero;stroke:none"
           d="m 25.97005,8.031301 c -4.34719,1.585087 -5.73741,2.921989 -5.73741,5.784709 0,1.71878 1.32673,1.15771 1.90895,4.30489 0.24345,1.30554 1.41495,0.0211 1.64078,3.00167 0,1.18804 -0.64222,1.48309 -0.64222,1.48309 0,0 0.32817,1.75789 0.45519,3.11073 0.15524,1.68562 -0.97388,6.04047 -7.0112,6.04047 -6.03733,0 -7.17002,-4.35485 -7.01121,-6.04047 0.127022,-1.35284 0.45515,-3.11073 0.45515,-3.11073 0,0 -0.642173,-0.29505 -0.642173,-1.48309 C 9.611739,18.142 10.7832,19.42644 11.02669,18.1209 11.6089,14.97372 12.9356,15.53479 12.9356,13.81601 12.9356,10.95329 11.54537,9.616388 7.19823,8.031301 2.833385,6.441046 0,4.81995 0,3.714523 0,2.609701 0,-5.722046e-6 0,-5.722046e-6 l 33.16827,0 c 0,0 0,2.609706722046 0,3.714528722046 0,1.105427 -2.83342,2.726523 -7.19822,4.316778"
           inkscape:connector-curvature="0" />
      </g>
    </g>
    <rect
       inkscape:export-ydpi="90"
       inkscape:export-xdpi="90"
       inkscape:export-filename="/var/www/WireIt-0.5.0/examples/MeicanEditor/notify_group.png"
       style="fill:#e6e6e6;fill-opacity:1;stroke:#000000;stroke-width:0.97403312;stroke-opacity:1"
       id="rect4826"
       width="69.025963"
       height="69.02597"
       x="281.41559"
       y="881.92065"
       ry="6.3576555" />
    <g
       inkscape:export-ydpi="90"
       inkscape:export-xdpi="90"
       inkscape:export-filename="/var/www/WireIt-0.5.0/examples/MeicanEditor/notify_group.png"
       id="g4828"
       inkscape:label="image21"
       transform="matrix(1.25,0,0,-1.25,294.62696,950.28164)">
      <g
         id="g4830" />
      <g
         id="g4832">
        <path
           inkscape:connector-curvature="0"
           d="m 25.97005,8.031301 c -4.34719,1.585087 -5.73741,2.921989 -5.73741,5.784709 0,1.71878 1.32673,1.15771 1.90895,4.30489 0.24345,1.30554 1.41495,0.0211 1.64078,3.00167 0,1.18804 -0.64222,1.48309 -0.64222,1.48309 0,0 0.32817,1.75789 0.45519,3.11073 0.15524,1.68562 -0.97388,6.04047 -7.0112,6.04047 -6.03733,0 -7.17002,-4.35485 -7.01121,-6.04047 0.127022,-1.35284 0.45515,-3.11073 0.45515,-3.11073 0,0 -0.642173,-0.29505 -0.642173,-1.48309 C 9.611739,18.142 10.7832,19.42644 11.02669,18.1209 11.6089,14.97372 12.9356,15.53479 12.9356,13.81601 12.9356,10.95329 11.54537,9.616388 7.19823,8.031301 2.833385,6.441046 0,4.81995 0,3.714523 0,2.609701 0,-5.722046e-6 0,-5.722046e-6 l 33.16827,0 c 0,0 0,2.609706722046 0,3.714528722046 0,1.105427 -2.83342,2.726523 -7.19822,4.316778"
           style="fill:#000000;fill-opacity:1;fill-rule:nonzero;stroke:none"
           id="path4834" />
      </g>
    </g>
    <g
       transform="matrix(0.96884595,0,0,-0.96884595,314.62696,950.28164)"
       inkscape:label="image21"
       id="g4844"
       inkscape:export-filename="/var/www/WireIt-0.5.0/examples/MeicanEditor/notify_group.png"
       inkscape:export-xdpi="90"
       inkscape:export-ydpi="90">
      <g
         id="g4846" />
      <g
         id="g4848">
        <path
           id="path4850"
           style="fill:#000000;fill-opacity:1;fill-rule:nonzero;stroke:none"
           d="m 25.97005,8.0312993 c -4.34719,1.585087 -5.73741,2.9219887 -5.73741,5.7847087 0,1.71878 1.32673,1.15771 1.90895,4.30489 0.24345,1.30554 1.41495,0.0211 1.64078,3.00167 0,1.18804 -0.64222,1.48309 -0.64222,1.48309 0,0 0.32817,1.75789 0.45519,3.11073 0.15524,1.68562 -0.97388,6.04047 -7.0112,6.04047 -6.03733,0 -7.17002,-4.35485 -7.01121,-6.04047 0.127022,-1.35284 0.45515,-3.11073 0.45515,-3.11073 0,0 -0.642173,-0.29505 -0.642173,-1.48309 0.225832,-2.98057 1.397293,-1.69613 1.640783,-3.00167 0.58221,-3.14718 1.90891,-2.58611 1.90891,-4.30489 0,-2.86272 -1.39023,-4.1996217 -5.73737,-5.7847087 C 2.833385,6.4410443 0,4.8199483 0,3.7145213 0,2.6096993 0,-7.3825539e-6 0,-7.3825539e-6 l 33.16827,0 c 0,0 0,2.6097066825539 0,3.7145286825539 0,1.105427 -2.83342,2.726523 -7.19822,4.316778"
           inkscape:connector-curvature="0" />
      </g>
    </g>
    <g
       inkscape:export-ydpi="90"
       inkscape:export-xdpi="90"
       inkscape:export-filename="/var/www/WireIt-0.5.0/examples/MeicanEditor/notify_group.png"
       id="g4852"
       inkscape:label="image21"
       transform="matrix(0.96884595,0,0,-0.96884595,283.91268,950.28164)">
      <g
         id="g4854" />
      <g
         id="g4856">
        <path
           inkscape:connector-curvature="0"
           d="m 25.97005,8.031301 c -4.34719,1.585087 -5.73741,2.921989 -5.73741,5.784709 0,1.71878 1.32673,1.15771 1.90895,4.30489 0.24345,1.30554 1.41495,0.0211 1.64078,3.00167 0,1.18804 -0.64222,1.48309 -0.64222,1.48309 0,0 0.32817,1.75789 0.45519,3.11073 0.15524,1.68562 -0.97388,6.04047 -7.0112,6.04047 -6.03733,0 -7.17002,-4.35485 -7.01121,-6.04047 0.127022,-1.35284 0.45515,-3.11073 0.45515,-3.11073 0,0 -0.642173,-0.29505 -0.642173,-1.48309 C 9.611739,18.142 10.7832,19.42644 11.02669,18.1209 11.6089,14.97372 12.9356,15.53479 12.9356,13.81601 12.9356,10.95329 11.54537,9.616388 7.19823,8.031301 2.833385,6.441046 0,4.81995 0,3.714523 0,2.609701 0,-5.722046e-6 0,-5.722046e-6 l 33.16827,0 c 0,0 0,2.609706722046 0,3.714528722046 0,1.105427 -2.83342,2.726523 -7.19822,4.316778"
           style="fill:#000000;fill-opacity:1;fill-rule:nonzero;stroke:none"
           id="path4858" />
      </g>
    </g>
    <g
       transform="matrix(0.83819841,0,0,-0.83819841,300.30347,818.45929)"
       inkscape:label="image105"
       id="g3638"
       inkscape:export-filename="/var/www/WireIt-0.5.0/examples/MeicanEditor/notify_user.png"
       inkscape:export-xdpi="90"
       inkscape:export-ydpi="90">
      <g
         id="g3640" />
      <g
         id="g3642">
        <path
           id="path3644"
           style="fill:#000000;fill-opacity:1;fill-rule:nonzero;stroke:none"
           d="m 14.79759,20.2891 4.27871,0 0,-10.585616 -4.27871,0 0,10.585616 z m 0,-13.232021 4.27871,0 0,-3.528539 -4.27871,0 0,3.528539 z M 33.71729,1.799591 18.00222,29.37862 c -0.21666,0.37754 -0.62385,0.61396 -1.06562,0.61396 -0.44142,0 -0.84862,-0.23642 -1.06562,-0.61396 L 0.1573241,1.799591 C -0.05579979,1.425545 -0.05227125,0.9668179 0.1672041,0.5963039 0.3863264,0.2293205 0.7878745,0 1.222238,0 L 32.65166,0 c 0.43366,0 0.83556,0.2293205 1.05504,0.5963039 0.21947,0.370514 0.22265,0.8292411 0.01059,1.2032871"
           inkscape:connector-curvature="0" />
      </g>
    </g>
    <g
       id="g4860"
       inkscape:label="image105"
       transform="matrix(0.83819841,0,0,-0.83819841,301.73206,909.33241)"
       inkscape:export-filename="/var/www/WireIt-0.5.0/examples/MeicanEditor/notify_group.png"
       inkscape:export-xdpi="90"
       inkscape:export-ydpi="90">
      <g
         id="g4862" />
      <g
         id="g4864">
        <path
           inkscape:connector-curvature="0"
           d="m 14.79759,20.2891 4.27871,0 0,-10.585616 -4.27871,0 0,10.585616 z m 0,-13.232021 4.27871,0 0,-3.528539 -4.27871,0 0,3.528539 z M 33.71729,1.799591 18.00222,29.37862 c -0.21666,0.37754 -0.62385,0.61396 -1.06562,0.61396 -0.44142,0 -0.84862,-0.23642 -1.06562,-0.61396 L 0.1573241,1.799591 C -0.05579979,1.425545 -0.05227125,0.9668179 0.1672041,0.5963039 0.3863264,0.2293205 0.7878745,0 1.222238,0 L 32.65166,0 c 0.43366,0 0.83556,0.2293205 1.05504,0.5963039 0.21947,0.370514 0.22265,0.8292411 0.01059,1.2032871"
           style="fill:#000000;fill-opacity:1;fill-rule:nonzero;stroke:none"
           id="path4866" />
      </g>
    </g>
    <rect
       ry="6.3576555"
       y="920.02795"
       x="67.12986"
       height="69.02597"
       width="69.025963"
       id="rect4922"
       style="fill:#e6e6e6;fill-opacity:1;stroke:#000000;stroke-width:0.97403312;stroke-opacity:1"
       inkscape:export-filename="/var/www/WireIt-0.5.0/examples/MeicanEditor/bandwidth.png"
       inkscape:export-xdpi="90"
       inkscape:export-ydpi="90" />
    <g
       transform="matrix(2.278872,0,0,-2.278872,66.622089,981.25571)"
       inkscape:label="bandwidth"
       id="g4895"
       inkscape:export-filename="/var/www/WireIt-0.5.0/examples/MeicanEditor/bandwidth.png"
       inkscape:export-xdpi="90"
       inkscape:export-ydpi="90">
      <g
         id="g4897" />
      <g
         id="g4899">
        <g
           clip-path="url(#clipPath4903)"
           id="g4901">
          <path
             id="path4907"
             style="fill:#000000;fill-opacity:1;fill-rule:nonzero;stroke:none"
             d="M 3.936666,4.152408 3.926332,4.246097 16.63545,15.29833 16.93811,12.6515 27.76423,19.72126 27.93939,19.84309 15.2406,8.69719 14.93796,11.344 3.936666,4.152408 z"
             inkscape:connector-curvature="0" />
          <g
             transform="matrix(1,0,0,-1,-972.5,368.5)"
             id="g4909">
            <path
               id="path4911"
               style="fill:none;stroke:#000000;stroke-width:1;stroke-linecap:round;stroke-linejoin:round;stroke-miterlimit:10;stroke-opacity:1;stroke-dasharray:none"
               d="m 976.4367,364.3476 -0.0104,-0.0937 12.7092,-11.0522 0.3026,2.6468 10.8259,-7.0698 0.175,-0.1218 -12.6984,11.1459 -0.3026,-2.6468 -11.0013,7.1916 z"
               inkscape:connector-curvature="0" />
          </g>
        </g>
      </g>
    </g>
    <g
       inkscape:export-ydpi="90"
       inkscape:export-xdpi="90"
       inkscape:export-filename="/var/www/WireIt-0.5.0/examples/MeicanEditor/request.png"
       transform="matrix(1.1777319,0,0,-1.1777319,293.1691,680.29726)"
       id="g5035">
      <path
         id="path5037"
         style="fill:#000000;fill-opacity:1;fill-rule:nonzero;stroke:none"
         d="m 7.409936,7.46283 9.879914,0 0,3.08751 -9.879914,0 0,-3.08751 z m 0,13.84956 9.879914,0 0,3.08743 -9.879914,0 0,-3.08743 z m -3.881395,6.91593 17.642709,0 0,-24.699778 -17.642709,0 0,24.699778 z m 17.642709,3.52855 -17.642709,0 C 1.587843,31.75687 0,30.16902 0,28.22832 L 0,3.528542 C 0,1.587843 1.587843,0 3.528541,0 L 21.17125,0 c 1.9407,0 3.52854,1.587843 3.52854,3.528542 l 0,24.699778 c 0,1.9407 -1.58784,3.52855 -3.52854,3.52855 z M 7.44981,14.34348 l 9.87992,0 0,3.17569 -9.87992,0 0,-3.17569 z"
         inkscape:connector-curvature="0" />
    </g>
  </g>
</svg>
